<svg version="1.1" id="Layer_1" xmlns="http://www.w3.org/2000/svg" xmlns:xlink="http://www.w3.org/1999/xlink" x="0px" y="0px"
	 width="100%" viewBox="0 0 496 496" enable-background="new 0 0 496 496" xml:space="preserve">
<path fill="#000000" opacity="1.000000" stroke="none" 
	d="
M203.468658,497.000000 
	C194.107300,494.276917 184.966751,492.505402 176.098587,489.630127 
	C137.493988,477.113495 104.103500,456.270203 75.509392,427.541870 
	C40.806847,392.676483 18.931826,350.889221 8.868840,302.968567 
	C3.018644,275.109497 2.466004,247.030807 6.355358,218.658295 
	C9.996887,192.093643 18.088078,167.046463 29.558912,143.146866 
	C41.963688,117.301392 58.762718,94.369583 79.703865,74.580673 
	C98.474037,56.843273 119.106079,41.807575 142.446594,30.645420 
	C167.513824,18.657490 193.603256,10.527774 221.429626,7.442772 
	C266.198853,2.479381 309.434601,7.428984 350.668640,25.761044 
	C395.741272,45.799675 432.129456,76.336578 459.104584,117.893700 
	C476.995056,145.455200 488.997162,175.304230 495.032898,207.576141 
	C495.578644,210.494186 495.050659,213.612656 496.838531,216.664520 
	C497.000000,240.354233 497.000000,263.708466 496.859253,287.878754 
	C494.992310,297.480316 493.717590,306.383362 491.464539,315.031586 
	C479.471527,361.066589 456.319885,400.527252 421.641754,433.258362 
	C393.180237,460.121887 360.440826,479.503052 323.024078,490.938629 
	C315.745117,493.163300 308.344513,494.989838 301.000000,497.000000 
	C268.645782,497.000000 236.291550,497.000000 203.468658,497.000000 
M478.156525,198.238846 
	C474.541351,183.305573 469.358246,168.959412 462.903503,154.994202 
	C446.554626,119.622490 422.677124,90.285469 391.780609,66.825424 
	C357.193542,40.563103 318.130310,25.362873 274.768463,21.067400 
	C243.837753,18.003372 213.569107,21.122599 183.910004,29.844555 
	C160.772903,36.648567 139.109848,47.007404 119.339333,60.833241 
	C67.360634,97.182777 35.586132,146.879715 23.138783,208.922134 
	C16.937477,239.831863 17.454981,270.945526 23.750093,301.696747 
	C31.501040,339.559601 48.476032,373.300323 73.123062,403.031586 
	C90.824562,424.384521 111.912056,441.958252 135.851440,455.923279 
	C166.076859,473.555206 198.924408,483.171906 233.671600,486.359283 
	C254.703476,488.288605 275.610352,486.643036 296.282959,482.632965 
	C341.163300,473.927185 379.886261,453.125458 412.889648,421.745270 
	C438.375732,397.512695 457.253357,368.747772 469.789917,335.837189 
	C479.969666,309.113434 484.840515,281.478424 484.718140,252.896439 
	C484.640198,234.691391 482.174591,216.798904 478.156525,198.238846 
z"/>
<path fill="#000000" opacity="1.000000" stroke="none" 
	d="
M243.203491,360.333679 
	C211.993454,356.855377 186.432724,343.841217 167.266052,319.203644 
	C150.148575,297.200165 142.451767,272.036774 144.945206,244.442398 
	C147.639099,214.629547 160.927734,189.929733 184.171707,170.629089 
	C203.728027,154.390488 226.546677,146.608963 251.380844,146.286926 
	C275.022095,145.980377 296.654602,153.505753 315.847046,168.101990 
	C335.898590,183.351562 349.500946,202.846329 355.239899,227.098206 
	C363.748962,263.055939 356.642151,295.823029 331.827423,323.947968 
	C308.431305,350.464966 278.678314,361.819489 243.203491,360.333679 
M227.750443,318.727234 
	C239.021851,323.348206 251.040726,324.209625 262.604767,322.209198 
	C297.076477,316.245880 320.559875,287.848419 320.880157,253.847244 
	C321.194550,220.472000 296.212891,189.909790 262.497620,185.116043 
	C234.730408,181.167984 211.809296,190.405807 195.263840,213.119537 
	C168.677689,249.617218 184.777359,302.220917 227.750443,318.727234 
M200.601776,177.052185 
	C200.123413,178.981384 199.829956,180.979919 199.136688,182.828522 
	C194.651093,194.789185 185.422684,200.828445 173.315063,202.972549 
	C170.098969,203.542099 168.059601,204.991287 167.464066,208.139008 
	C167.099701,210.064896 167.882111,211.776077 170.131195,211.135529 
	C176.288071,209.382019 182.899109,209.062347 188.130707,204.418686 
	C191.996765,200.987106 195.502243,197.177399 199.429565,193.861221 
	C206.372192,187.998993 207.898697,179.829651 209.510208,171.685471 
	C210.018646,169.115952 208.724442,167.974472 205.927704,169.040161 
	C202.522110,170.337860 201.041351,172.816177 200.601776,177.052185 
M340.022797,241.571564 
	C339.034180,241.427170 338.047638,241.266632 337.056641,241.141083 
	C331.290283,240.410355 331.178406,240.532425 331.281921,246.447357 
	C331.337250,249.610245 331.357452,252.774887 331.322449,255.937958 
	C331.205902,266.468323 331.189331,266.309174 341.652100,266.028381 
	C346.013794,265.911377 347.634491,263.898987 347.636200,259.907562 
	C347.637756,256.244049 347.406494,252.560974 347.705658,248.921692 
	C348.130310,243.755112 345.959015,241.433990 340.022797,241.571564 
M309.086761,315.677704 
	C313.877686,309.035095 320.696960,305.907654 328.525085,304.774200 
	C333.276031,304.086273 335.668732,301.493988 336.681793,296.961304 
	C329.545258,295.605530 318.898285,298.896149 314.082611,303.678558 
	C311.369080,306.373352 308.910339,309.380524 305.940155,311.749664 
	C299.308685,317.039185 295.934082,324.067108 294.455383,332.126221 
	C294.081787,334.162354 292.229584,337.315796 295.221497,338.298553 
	C298.143280,339.258270 300.455719,336.716583 302.021332,334.288940 
	C302.701202,333.234680 302.796906,331.772552 303.040710,330.473663 
	C303.998260,325.373047 305.332062,320.432343 309.086761,315.677704 
M164.956863,241.019714 
	C163.305313,241.135101 161.653763,241.250595 160.002213,241.365875 
	C157.722092,241.524994 156.286758,242.518951 156.161209,245.008011 
	C156.019897,247.809738 155.424118,250.631805 155.629425,253.400284 
	C156.521820,265.433868 156.610779,265.316345 168.729706,266.302124 
	C172.087540,266.575287 172.951599,265.606476 172.251038,262.464661 
	C171.121140,257.397369 171.453445,252.219650 171.884293,247.137650 
	C172.405167,240.994064 172.089951,240.406250 164.956863,241.019714 
M255.255890,157.330124 
	C251.760056,157.340225 248.264221,157.351593 244.768387,157.360001 
	C242.310760,157.365921 239.537292,157.652954 239.558762,160.665802 
	C239.588577,164.848755 237.999237,169.271927 240.621307,173.195786 
	C240.937256,173.668610 242.198837,173.771500 242.955826,173.645981 
	C248.765915,172.682449 254.566925,173.708069 260.369019,173.622787 
	C261.539612,173.605576 263.059875,173.729874 263.415649,172.460800 
	C264.603210,168.224533 264.514984,163.783783 263.217010,159.708923 
	C262.235077,156.626114 258.762268,157.532745 255.255890,157.330124 
M257.556091,333.335754 
	C252.751907,333.647736 247.952957,333.930450 243.145935,333.286591 
	C240.430298,332.922821 239.326950,334.152100 239.188126,336.958984 
	C238.619797,348.447784 239.764267,349.735870 251.241547,349.718781 
	C251.740311,349.718048 252.239090,349.715820 252.737854,349.714630 
	C263.698151,349.688995 263.580658,349.683563 264.074707,339.003510 
	C264.272247,334.733002 262.919556,332.647125 257.556091,333.335754 
M333.977203,210.880661 
	C335.979950,210.835739 336.676270,209.988464 335.924133,208.000534 
	C334.762268,204.929520 332.696838,203.017151 329.406067,202.518585 
	C326.279327,202.044891 323.212158,201.402328 320.232574,200.255737 
	C309.110718,195.975861 304.591370,186.913086 302.681671,176.038803 
	C301.877289,171.458649 299.336823,169.210831 294.921570,168.528687 
	C290.894379,184.507492 312.084015,207.599258 333.977203,210.880661 
M197.961731,320.864960 
	C199.090897,324.849701 200.169907,328.849518 201.363785,332.814758 
	C202.478806,336.518127 204.866058,338.582550 208.873718,338.494568 
	C212.777863,320.837402 181.714569,291.350769 167.007248,297.040070 
	C167.440826,301.395905 169.858963,304.035950 174.145615,304.580231 
	C184.599915,305.907684 192.535553,310.852264 197.961731,320.864960 
M221.728836,344.518311 
	C223.474915,345.874603 225.504211,347.289154 227.594650,346.120026 
	C229.979767,344.786072 229.556381,342.091370 229.215240,339.789612 
	C228.850479,337.328583 228.340851,334.876923 227.704498,332.471405 
	C226.935257,329.563538 224.590759,328.224731 221.929245,327.536682 
	C219.864914,327.002960 218.224991,328.218384 218.978607,330.169403 
	C220.701614,334.630066 219.563629,339.483307 221.728836,344.518311 
M219.474686,175.570831 
	C219.725311,179.887909 220.801956,180.551041 224.381470,178.593079 
	C227.776581,176.735962 230.980148,165.826736 229.161880,162.319992 
	C228.464020,160.974075 227.456207,160.425537 225.895081,160.773087 
	C222.839432,161.453369 220.738739,162.935730 220.494476,166.347931 
	C220.293198,169.159439 219.966797,171.961975 219.474686,175.570831 
M333.165009,285.297546 
	C336.209930,284.149628 339.886963,285.730896 342.593842,283.086792 
	C343.953369,281.758820 345.048401,280.304047 344.462341,278.298340 
	C343.860931,276.239990 342.035370,276.224609 340.394623,276.360840 
	C337.116364,276.633148 333.820648,276.914642 330.594025,277.521393 
	C327.913849,278.025452 324.604156,283.241943 325.703400,285.187103 
	C327.384979,288.162781 329.798798,285.671692 331.892456,285.631012 
	C332.053864,285.627899 332.214050,285.560669 333.165009,285.297546 
M159.340561,228.323502 
	C162.907379,232.238052 173.096970,231.207611 176.161514,226.598328 
	C176.974304,225.375854 178.049255,224.082809 177.334259,222.524689 
	C176.562698,220.843353 174.836426,221.129684 173.400879,221.229767 
	C170.609039,221.424408 167.834976,221.902664 165.042313,222.049042 
	C161.454178,222.237106 159.643997,224.083282 159.340561,228.323502 
M279.297546,161.326508 
	C275.382263,159.415070 274.027649,161.145859 274.334778,164.932465 
	C274.549469,167.578888 274.961212,170.211044 275.335114,172.842438 
	C276.012695,177.611176 278.860260,179.585281 284.230865,178.870621 
	C283.763855,175.108749 283.208832,171.349686 282.860260,167.571579 
	C282.639130,165.175339 282.435455,162.889801 279.297546,161.326508 
M339.000824,222.207901 
	C334.797028,222.514099 330.690399,220.370117 326.339844,221.441223 
	C326.041595,225.086716 326.657623,228.362549 330.192383,229.366333 
	C333.628998,230.342224 337.354156,230.446671 340.967346,230.612152 
	C344.063751,230.753952 345.198730,229.196930 343.866516,226.176285 
	C343.038483,224.298843 342.111389,222.590866 339.000824,222.207901 
M274.392212,343.869049 
	C277.119934,347.167572 281.333832,347.092163 282.205353,343.386292 
	C283.384644,338.371552 283.599457,333.130005 284.237549,327.908234 
	C277.775452,328.211761 275.803070,329.943665 275.256439,335.245972 
	C274.986328,337.866211 274.644440,340.479065 274.392212,343.869049 
M163.278397,284.620422 
	C168.175827,284.268890 172.898346,285.984283 177.664642,286.498566 
	C177.845703,285.530731 177.983017,285.205017 177.953415,284.895294 
	C177.200348,277.013885 171.085220,277.176239 165.479767,276.643982 
	C163.433105,276.449646 160.803162,275.310760 159.713104,277.878357 
	C158.546753,280.625641 159.598557,283.071838 163.278397,284.620422 
z"/>
<path fill="#000000" opacity="1.000000" stroke="none" 
	d="
M90.901749,232.231857 
	C78.948357,228.456436 67.399124,224.710526 55.806351,221.104630 
	C51.844337,219.872269 50.118557,218.057114 52.396416,213.850372 
	C53.565453,211.691391 54.394947,209.215408 54.772903,206.788467 
	C55.605137,201.444458 58.786392,200.022781 63.634956,200.668228 
	C72.514206,201.850220 81.404266,202.951141 90.282928,204.137405 
	C91.429298,204.290558 92.539505,204.807037 93.801468,203.618393 
	C93.330032,201.561707 91.191277,201.528549 89.783096,200.670639 
	C82.251961,196.082382 74.778084,191.391129 67.118729,187.026230 
	C63.486843,184.956482 62.695168,182.425400 64.281540,178.788361 
	C65.146080,176.806244 65.969475,174.803940 66.740280,172.783600 
	C69.388817,165.841644 69.627739,165.979492 76.430832,168.375458 
	C92.102180,173.894745 107.871819,179.137756 123.641792,184.371689 
	C126.520874,185.327225 129.525482,185.982635 127.928635,189.943619 
	C125.005585,197.194229 124.740829,198.384476 119.583519,196.787140 
	C110.675179,194.028046 102.002983,190.626984 93.131317,187.796783 
	C91.281990,187.206802 89.489113,186.214890 86.463310,186.834320 
	C94.056847,191.365494 100.982689,195.508362 107.919830,199.632233 
	C110.347603,201.075455 112.782982,202.508118 115.250061,203.882477 
	C120.855202,207.004959 121.723816,210.301239 118.428711,215.758545 
	C117.268204,217.680557 115.649048,217.742035 113.688095,217.493408 
	C105.119255,216.406952 96.543808,215.365768 87.958412,214.420303 
	C84.919472,214.085617 81.845383,214.070007 78.387154,213.887634 
	C79.542908,216.662857 81.513847,216.850082 83.168556,217.342667 
	C92.084816,219.996887 100.985947,222.721878 109.983231,225.074753 
	C113.978058,226.119431 114.819206,227.997375 113.206696,231.549637 
	C112.661621,232.750412 112.407074,234.086304 112.051910,235.369354 
	C111.253258,238.254517 109.739677,238.894852 106.836563,237.737106 
	C101.743370,235.706009 96.480591,234.100174 90.901749,232.231857 
z"/>
<path fill="#000000" opacity="1.000000" stroke="none" 
	d="
M403.350159,211.797363 
	C398.577362,212.823013 394.177429,213.678452 389.797485,214.626129 
	C387.333710,215.159225 384.847534,216.200653 383.770813,212.567230 
	C381.707275,205.603836 382.228027,203.000092 386.591064,201.902008 
	C395.586365,199.638077 404.646729,197.630402 413.691437,195.565918 
	C421.782776,193.719055 429.907959,192.017258 437.982056,190.099228 
	C443.409546,188.809891 444.180939,189.179825 445.382721,194.817245 
	C446.798889,201.460144 449.262665,207.879974 449.256836,214.824051 
	C449.245422,228.380600 437.556610,236.912109 424.929199,231.862488 
	C420.518036,230.098495 417.953949,229.296097 414.684174,233.736679 
	C412.125488,237.211563 407.140503,237.663544 403.053162,238.993881 
	C400.695312,239.761292 398.084198,239.818771 395.800476,240.730362 
	C391.945831,242.268936 389.243286,242.488113 388.185791,237.408005 
	C386.866608,231.070801 387.720306,228.973618 392.988464,227.618835 
	C397.488068,226.461685 402.044312,225.464645 406.448090,224.010956 
	C411.268097,222.419861 412.902740,218.947723 411.475586,214.178467 
	C410.126923,209.671494 406.815552,210.960083 403.350159,211.797363 
M438.288818,210.100266 
	C437.852448,207.641052 437.345581,203.986450 434.479858,204.731003 
	C429.842255,205.935883 424.460388,205.204620 420.644714,209.024673 
	C420.365448,209.304276 420.428009,209.974426 420.416809,210.464951 
	C420.316864,214.852402 425.174652,220.461075 429.134644,220.550583 
	C434.925140,220.681503 438.287506,217.164093 438.288818,210.100266 
z"/>
<path fill="#000000" opacity="1.000000" stroke="none" 
	d="
M294.060242,89.179367 
	C296.631775,81.637428 300.262543,75.160110 305.509613,69.651009 
	C311.959900,62.878578 321.485321,61.755402 330.728760,66.628700 
	C339.294556,71.144737 343.148102,78.914696 341.367004,88.064064 
	C339.088867,99.766792 335.357330,110.838310 327.637604,120.228218 
	C320.863220,128.468307 311.784637,130.633224 302.160858,126.216560 
	C292.747589,121.896500 287.891724,112.551537 290.114807,102.429863 
	C291.073303,98.066017 292.631195,93.833817 294.060242,89.179367 
M306.182007,96.595100 
	C304.762421,100.656769 302.840759,104.607819 303.294556,109.095619 
	C303.631927,112.431931 304.807220,115.436737 308.251892,116.476654 
	C311.858215,117.565376 314.942474,116.093719 316.765015,112.907265 
	C321.543396,104.553085 326.150391,96.094032 327.990448,86.479500 
	C329.083557,80.767792 327.671021,77.385345 323.383240,75.874199 
	C318.327606,74.092445 315.557220,77.338524 313.275360,80.962822 
	C310.351440,85.606857 308.189911,90.650917 306.182007,96.595100 
z"/>
<path fill="#000000" opacity="1.000000" stroke="none" 
	d="
M90.637817,131.596024 
	C93.206306,128.572067 95.397530,128.792831 98.086792,131.113495 
	C108.041367,139.703659 118.074989,148.205597 128.211838,156.579758 
	C133.168961,160.674911 137.501816,160.371704 140.281662,156.198975 
	C142.506714,152.859055 141.629196,149.967255 139.133072,147.173218 
	C131.113190,138.196106 121.368790,131.095200 112.724991,122.799126 
	C112.125755,122.223999 111.437782,121.742523 110.810234,121.195518 
	C104.711380,115.879471 105.093262,111.139465 111.902763,106.777420 
	C113.824608,105.546326 115.363808,106.113197 116.843102,107.468147 
	C127.274284,117.022545 137.845932,126.430145 148.070892,136.200500 
	C153.633972,141.516235 157.171738,147.845795 153.278412,155.863037 
	C148.845795,164.990814 142.709396,172.155136 131.783173,173.009003 
	C128.043991,173.301208 124.580818,171.578522 121.620987,169.370514 
	C109.868950,160.603592 99.064774,150.698196 88.064346,141.035217 
	C83.074821,136.652344 88.500015,134.645309 90.637817,131.596024 
z"/>
<path fill="#000000" opacity="1.000000" stroke="none" 
	d="
M428.335114,166.299530 
	C424.517212,168.681763 422.537781,167.013443 420.948730,163.851212 
	C419.231964,160.434906 417.379364,157.082809 415.480804,153.762863 
	C412.539032,148.618759 409.412323,152.230499 406.274567,153.593338 
	C402.894775,155.061310 401.600708,157.281265 403.532166,160.660080 
	C405.429993,163.980164 407.239258,167.406342 409.573975,170.407440 
	C412.610168,174.310196 410.196472,175.820190 407.251953,177.693130 
	C404.166809,179.655487 401.681091,180.597214 399.557922,176.445496 
	C397.896088,173.195877 395.779907,170.179443 393.881378,167.049805 
	C392.169434,164.227737 389.997833,163.716324 387.194702,165.531586 
	C375.700836,172.974808 376.982483,170.799316 383.326538,180.798706 
	C384.307312,182.344589 385.322968,183.869385 386.267639,185.436951 
	C389.969086,191.578735 389.726196,192.040665 383.082581,195.173019 
	C380.234161,196.515991 378.525330,195.971603 376.930328,193.301498 
	C372.581055,186.020630 368.106659,178.812729 363.575165,171.643356 
	C361.605347,168.526886 361.855286,166.183441 365.123199,164.151703 
	C380.943604,154.315842 396.717560,144.405289 412.523804,134.546616 
	C415.385773,132.761536 417.054016,134.212524 418.519165,136.733932 
	C422.614410,143.781555 426.707092,150.837631 431.065643,157.722672 
	C433.586517,161.704819 433.338959,164.435730 428.335114,166.299530 
z"/>
<path fill="#000000" opacity="1.000000" stroke="none" 
	d="
M357.049530,131.966263 
	C359.477173,132.360123 361.026367,130.990082 362.473358,129.666336 
	C370.111877,122.678429 378.786591,117.013199 386.800323,110.503410 
	C391.774933,106.462372 398.023865,108.219131 400.648987,114.055901 
	C401.492065,115.930336 400.404877,116.854225 399.137756,117.752716 
	C383.113678,129.115173 367.084534,140.470581 351.052429,151.821716 
	C350.512421,152.204041 349.884491,152.877762 349.369904,152.815674 
	C344.492615,152.227219 342.031952,148.033157 338.610748,145.305008 
	C336.543182,143.656311 337.425934,141.475464 338.463531,139.398254 
	C345.602600,125.106384 352.707672,110.797325 359.759430,96.462189 
	C361.151489,93.632370 362.262054,90.664215 363.507172,87.761879 
	C364.665161,85.062523 366.361328,84.113602 368.898346,86.181625 
	C370.317841,87.338722 371.608246,88.666840 373.091217,89.730606 
	C375.781250,91.660263 375.837189,93.697914 374.368561,96.597221 
	C369.254730,106.692879 364.319916,116.875854 358.648010,126.682121 
	C357.760590,128.216385 356.604309,129.770081 357.049530,131.966263 
z"/>
<path fill="#000000" opacity="1.000000" stroke="none" 
	d="
M277.771484,73.145767 
	C272.402344,73.218864 267.604889,73.562950 266.600067,66.626457 
	C266.172699,63.676430 263.266907,62.225559 260.068756,62.305340 
	C256.728546,62.388657 254.726547,64.576859 253.894394,67.316574 
	C252.744064,71.103828 251.965790,75.083633 251.659027,79.030014 
	C251.119507,85.971008 250.569504,92.956917 252.890656,99.786201 
	C253.990570,103.022469 255.400513,105.599503 259.308044,105.631348 
	C262.984833,105.661308 264.503662,103.182648 265.638153,100.250793 
	C267.564758,95.271690 273.555389,93.081482 278.452850,95.505318 
	C280.458374,96.497871 280.160309,98.136467 279.858459,99.784225 
	C277.812988,110.950874 270.735840,116.622757 259.128296,116.429771 
	C246.765808,116.224251 240.216385,111.014786 238.623413,99.215370 
	C236.929871,86.670891 236.030685,74.034698 241.680374,62.070641 
	C245.420273,54.150890 254.260727,50.317429 265.026825,51.647423 
	C273.529266,52.697781 279.348694,57.963524 280.934479,66.427162 
	C281.417297,69.003906 282.588470,72.311729 277.771484,73.145767 
z"/>
<path fill="#000000" opacity="1.000000" stroke="none" 
	d="
M232.712265,450.516266 
	C226.754562,453.514862 223.545334,451.617188 224.040329,445.886688 
	C225.099335,433.626282 226.160675,421.365997 227.211395,409.104858 
	C227.375000,407.195740 227.646515,405.453979 230.052139,405.074188 
	C234.219299,404.416260 238.916473,406.585815 239.934219,409.924988 
	C241.822830,416.121460 243.573013,422.360107 245.379059,428.581726 
	C245.742630,429.834198 245.937408,431.200195 248.256851,431.925751 
	C248.727997,425.358582 249.336426,419.008881 249.573883,412.645355 
	C249.688095,409.585052 249.473343,406.879517 253.742462,406.939697 
	C257.946960,406.998993 258.282227,409.412659 258.354004,412.895477 
	C258.605377,425.086090 256.610229,437.125214 256.246674,449.265381 
	C256.181702,451.434143 255.632462,453.560944 252.976929,453.314178 
	C249.632355,453.003418 245.172058,454.994324 243.679398,449.884216 
	C241.864761,443.671875 240.329742,437.378265 238.570267,431.149078 
	C238.066040,429.363922 238.120178,427.199707 235.765289,425.814148 
	C233.404724,433.978333 235.156723,442.316528 232.712265,450.516266 
z"/>
<path fill="#000000" opacity="1.000000" stroke="none" 
	d="
M156.277893,103.646255 
	C152.664429,97.841339 149.313278,92.299835 145.812515,86.854507 
	C143.718750,83.597717 144.201630,81.329697 147.850815,79.803795 
	C149.070969,79.293587 150.311234,78.715828 151.356186,77.923492 
	C154.883835,75.248650 156.763351,76.718811 158.752396,80.098671 
	C165.068497,90.831154 171.639984,101.414314 178.188110,112.008614 
	C179.853241,114.702621 181.503296,117.382668 182.569931,120.375015 
	C185.032974,127.284966 183.143661,133.710953 177.227829,138.026520 
	C175.361328,139.388107 173.268509,140.455811 171.222000,141.551041 
	C166.205139,144.235916 161.604843,141.809525 160.796844,136.147766 
	C160.409225,133.431747 162.115555,132.382935 164.162567,131.310516 
	C169.339371,128.598419 170.008957,127.027000 167.219391,121.893044 
	C163.894180,115.773247 160.079727,109.919281 156.277893,103.646255 
z"/>
<path fill="#000000" opacity="1.000000" stroke="none" 
	d="
M360.081238,422.168335 
	C356.405762,424.480011 353.773193,423.569458 351.776764,420.344696 
	C350.269501,417.910156 348.419128,416.468811 345.700592,418.476898 
	C343.091827,420.403931 337.997833,420.367218 339.863678,426.029144 
	C340.534454,428.064606 341.923462,430.597137 339.869659,432.616516 
	C338.102386,434.354126 335.846649,436.069672 333.337311,435.751953 
	C330.675476,435.414856 330.898224,432.496826 330.406250,430.503967 
	C327.580048,419.055359 325.271088,407.458557 321.933258,396.164185 
	C319.819122,389.010590 325.525360,388.785797 328.936279,386.302490 
	C332.366608,383.805054 333.932831,386.473816 335.773285,388.692017 
	C343.754059,398.310944 352.721405,407.011536 361.485046,415.888519 
	C364.495331,418.937744 363.895111,420.518494 360.081238,422.168335 
M336.947662,412.956268 
	C339.747681,413.051941 343.600861,412.425934 341.768097,409.166412 
	C339.700958,405.490112 337.015503,401.410156 331.849213,398.791931 
	C332.864624,404.209717 333.903137,408.622223 336.947662,412.956268 
z"/>
<path fill="#000000" opacity="1.000000" stroke="none" 
	d="
M392.820587,380.998047 
	C391.486084,375.988953 394.925171,372.185181 399.587677,373.194336 
	C402.539154,373.833160 405.289459,374.239288 407.182617,371.344635 
	C408.459442,369.392334 407.821167,367.420471 406.278503,365.892365 
	C403.908875,363.545227 401.216553,363.024872 398.074768,364.573059 
	C395.245789,365.967041 392.331757,367.262421 389.334656,368.226166 
	C382.696533,370.360596 377.300995,368.701172 373.767700,363.729187 
	C370.153809,358.643799 370.476715,353.521057 374.779236,347.682526 
	C379.898315,340.735931 384.733978,338.665131 390.294342,341.241150 
	C391.947327,342.006989 394.819336,342.605377 393.473022,345.267456 
	C392.383942,347.420837 391.383789,350.483887 387.808777,349.954712 
	C387.318542,349.882172 386.849792,349.674713 386.364166,349.558899 
	C384.197784,349.042419 382.416718,349.590759 381.129333,351.479431 
	C380.096039,352.995331 379.920898,354.603546 380.877472,356.176941 
	C382.139160,358.252258 384.153046,359.041626 386.453430,358.664032 
	C390.287720,358.034668 393.568420,355.888245 397.119659,354.474792 
	C404.485962,351.542877 411.211212,353.701385 414.736145,360.076874 
	C418.370483,366.650269 416.928619,372.283539 409.750336,379.556671 
	C404.833496,384.538483 399.896027,385.052124 392.820587,380.998047 
z"/>
<path fill="#000000" opacity="1.000000" stroke="none" 
	d="
M178.409363,72.443291 
	C176.870041,68.915619 175.282394,65.878426 180.214096,64.075989 
	C188.772064,60.948231 189.137955,60.943726 191.353790,67.128326 
	C197.237656,83.550781 203.070633,99.991669 209.024399,116.388710 
	C210.223907,119.692238 209.731857,121.611694 206.095047,122.775063 
	C196.421829,125.869392 198.434570,127.658760 194.716141,117.379875 
	C189.340576,102.520172 183.944656,87.667839 178.409363,72.443291 
z"/>
<path fill="#000000" opacity="1.000000" stroke="none" 
	d="
M130.935272,384.760620 
	C129.426712,374.662781 132.076706,369.333160 139.358368,367.196198 
	C146.470795,365.108948 154.590561,368.904602 157.538925,375.774811 
	C158.604889,378.258698 159.335968,380.846283 157.900665,383.466736 
	C156.760498,385.548370 156.238205,388.825836 152.810577,387.649994 
	C149.767075,386.605835 147.651123,384.478333 149.060043,380.719360 
	C150.136932,377.846344 148.686386,376.159882 146.138412,375.438110 
	C143.781281,374.770416 141.837234,375.757050 140.800949,378.026398 
	C139.823517,380.166840 140.404297,382.227173 141.372635,384.264160 
	C142.940201,387.561798 144.747772,390.734009 145.573868,394.379364 
	C147.724213,403.868286 139.200409,412.713257 129.724930,410.418182 
	C123.035629,408.797974 118.195992,404.702332 115.545738,398.181213 
	C113.863014,394.040894 115.739616,390.685364 117.858727,387.468689 
	C118.920540,385.856964 120.777290,385.779510 122.305336,386.894836 
	C124.391640,388.417572 127.107857,389.637421 126.596138,392.996582 
	C126.499680,393.629791 126.080276,394.213104 125.813866,394.821198 
	C124.713615,397.332733 125.323280,399.431335 127.547249,400.927643 
	C129.336182,402.131226 131.408295,402.394073 133.133453,400.946899 
	C134.988007,399.391113 136.247528,397.349396 135.206329,394.773438 
	C133.896088,391.531830 132.447510,388.346130 130.935272,384.760620 
z"/>
<path fill="#000000" opacity="1.000000" stroke="none" 
	d="
M167.326843,414.775391 
	C165.362823,412.044769 163.490112,409.695618 161.856934,407.190369 
	C157.830078,401.013275 158.051270,396.964325 162.538971,391.221710 
	C166.332809,386.367004 171.221756,385.129456 177.709473,387.381622 
	C184.931870,389.888855 188.344193,393.889191 187.741135,399.806091 
	C187.514969,402.025208 188.207809,405.286896 184.682770,405.822479 
	C181.965652,406.235321 178.949341,402.535706 178.920868,399.135376 
	C178.889160,395.348297 176.640259,393.451141 173.341949,394.429077 
	C170.327423,395.322845 169.057678,399.339142 171.019257,402.862091 
	C172.217361,405.013885 174.031006,406.819916 175.542572,408.800812 
	C179.070862,413.424591 181.004105,418.336212 178.240417,424.077911 
	C175.092361,430.618164 170.233383,433.283905 163.316360,432.254120 
	C155.923691,431.153503 149.093460,425.558197 147.979050,419.704437 
	C147.448273,416.916382 148.457413,414.446716 149.619751,412.043549 
	C150.523758,410.174500 152.141815,409.891327 153.822922,410.828125 
	C156.156662,412.128571 159.660461,412.699097 158.632355,416.659332 
	C157.941330,419.321167 157.905792,421.637817 160.464874,423.260803 
	C162.682419,424.667236 164.923050,424.582062 166.890625,422.788940 
	C169.444046,420.461853 169.019135,417.795654 167.326843,414.775391 
z"/>
<path fill="#000000" opacity="1.000000" stroke="none" 
	d="
M114.045250,369.983826 
	C113.080574,368.805511 112.256332,367.956543 111.645676,366.974762 
	C109.502068,363.528442 107.283424,361.774872 103.424408,365.182007 
	C99.609879,368.549774 99.264503,370.072784 102.674461,374.252258 
	C103.936089,375.798584 105.206436,377.342499 106.554512,378.812592 
	C108.877197,381.345398 108.449120,383.434753 105.882286,385.552490 
	C103.256912,387.718506 101.501770,386.818848 99.653793,384.480347 
	C96.047752,379.917114 92.359787,375.413544 88.564270,371.007111 
	C86.334969,368.418976 86.567062,366.300262 89.147240,364.240479 
	C99.149002,356.255859 109.140915,348.258911 119.147285,340.280121 
	C121.527916,338.381866 123.583748,339.301208 125.195145,341.331818 
	C128.912643,346.016541 132.499939,350.804596 136.140610,355.550323 
	C137.788208,357.697998 136.837646,359.240417 134.958450,360.542053 
	C133.239319,361.732819 131.517639,362.804749 129.814758,360.478668 
	C128.145508,358.198547 126.457207,355.931793 124.744659,353.684021 
	C121.640518,349.609711 119.396164,352.958618 116.865952,354.552582 
	C113.992027,356.363037 114.700882,358.204041 116.540611,360.224762 
	C117.883987,361.700287 119.283897,363.145386 120.451683,364.754242 
	C121.805305,366.619110 124.329918,368.292603 121.242714,370.999237 
	C118.426277,373.468567 116.318535,373.165741 114.045250,369.983826 
z"/>
<path fill="#000000" opacity="1.000000" stroke="none" 
	d="
M211.026398,409.992218 
	C204.530701,408.611389 203.317764,409.403015 202.771957,414.521057 
	C202.530502,416.785187 203.426682,418.011597 205.408371,418.654755 
	C207.619034,419.372192 209.819763,420.178192 212.086182,420.652344 
	C215.534821,421.373871 215.723953,423.623871 214.976974,426.312897 
	C214.121353,429.393005 212.059448,429.466156 209.510178,428.369385 
	C208.144775,427.781952 206.662704,427.471191 205.248947,426.989624 
	C201.693405,425.778473 198.777115,425.651978 197.569916,430.284027 
	C196.449585,434.582794 197.118240,437.475586 202.080231,438.227386 
	C204.030411,438.522888 205.915054,439.228577 207.856979,439.606445 
	C210.318665,440.085510 212.617371,440.680054 211.847260,443.969482 
	C211.107941,447.127380 209.508301,449.103699 205.809830,447.900085 
	C200.124634,446.049957 194.438568,444.195526 188.707474,442.496002 
	C184.977310,441.389862 184.180862,439.219452 185.356369,435.668915 
	C189.115433,424.314850 192.779633,412.928711 196.376877,401.522308 
	C197.287476,398.634918 198.545715,397.358032 201.812897,398.445984 
	C206.688248,400.069458 211.687485,401.334808 216.666275,402.628357 
	C219.612030,403.393707 222.157822,404.127747 221.162598,408.183624 
	C220.096313,412.529144 217.405869,412.034058 214.297165,410.919983 
	C213.360275,410.584167 212.374161,410.385712 211.026398,409.992218 
z"/>
<path fill="#000000" opacity="1.000000" stroke="none" 
	d="
M289.463287,445.335083 
	C290.569611,450.891846 286.346283,450.250000 283.593811,450.951691 
	C280.002441,451.867218 279.189514,448.976654 278.999695,446.562164 
	C278.298981,437.649231 275.618774,429.007568 275.599945,420.001801 
	C275.589722,415.110107 273.864197,413.664368 269.046143,414.633057 
	C266.047546,415.235931 264.107025,414.825928 263.475494,411.622437 
	C262.847229,408.435486 264.707825,406.934570 267.469299,406.437866 
	C274.965851,405.089386 282.478058,403.821899 290.000977,402.628876 
	C293.028717,402.148712 293.523407,404.506409 293.936371,406.676727 
	C294.356689,408.885834 293.784943,410.518372 291.313538,411.246582 
	C283.973694,413.409363 284.006897,413.453217 285.319550,420.993073 
	C286.708038,428.968506 288.054688,436.951202 289.463287,445.335083 
z"/>
<path fill="#000000" opacity="1.000000" stroke="none" 
	d="
M350.344574,384.580017 
	C349.281586,383.266785 348.500610,382.180237 347.581207,381.227234 
	C344.899475,378.447418 345.306854,376.103546 348.183472,373.661743 
	C351.065002,371.215729 353.290710,371.291931 355.717926,374.327545 
	C361.626312,381.717041 367.906342,388.817566 373.624847,396.347260 
	C376.394135,399.993652 378.349670,399.663788 380.982147,396.582886 
	C382.378174,394.949066 384.014557,393.512238 385.605530,392.055389 
	C387.628723,390.202759 389.721619,390.038147 391.766968,392.055176 
	C393.868378,394.127533 393.673187,396.256012 391.566742,398.081390 
	C386.676117,402.319397 381.679749,406.435272 376.733551,410.609314 
	C374.259796,412.696869 372.654175,411.431885 370.961792,409.372528 
	C364.214111,401.161743 357.371094,393.029236 350.344574,384.580017 
z"/>
<path fill="#000000" opacity="1.000000" stroke="none" 
	d="
M311.273438,409.866089 
	C314.129761,418.593262 316.960693,426.913086 319.646301,435.279541 
	C321.165649,440.012848 320.114288,441.623566 315.377228,442.826935 
	C313.098358,443.405792 311.448029,443.077057 310.733551,440.577362 
	C307.223083,428.295807 302.663971,416.380127 298.155273,404.445099 
	C296.629333,400.405823 299.972626,399.858368 302.447449,398.612915 
	C305.083191,397.286530 306.924103,397.805817 307.974030,400.584564 
	C309.088043,403.532867 310.119629,406.512360 311.273438,409.866089 
z"/>
<path fill="#000000" opacity="1.000000" stroke="none" 
	d="
M215.812408,304.249664 
	C203.000610,296.135742 195.707169,284.282654 192.001892,270.465912 
	C185.659927,246.817017 191.502792,225.759811 208.776886,208.610504 
	C227.929321,189.596420 258.557861,184.792923 283.730530,200.131592 
	C310.781006,216.614456 322.347351,251.386337 308.421173,279.728241 
	C297.498871,301.956696 279.195129,314.480377 253.723068,315.423828 
	C239.883926,315.936401 227.404846,312.380188 215.812408,304.249664 
M267.074921,302.586548 
	C303.981293,290.674225 316.672516,243.580612 286.066925,215.480301 
	C269.848419,200.589371 244.264877,197.761169 224.819016,209.413712 
	C204.629517,221.511871 197.093933,244.273071 201.826538,265.103882 
	C208.500504,294.479614 237.321991,310.903015 267.074921,302.586548 
z"/>
<path fill="#000000" opacity="1.000000" stroke="none" 
	d="
M251.069687,298.221527 
	C228.492401,297.043976 209.801773,279.977936 207.836777,259.169098 
	C205.647095,235.981140 219.338181,215.351685 241.606934,210.345673 
	C271.108002,203.713837 295.943329,226.330154 295.593842,254.297546 
	C295.291748,278.469696 275.972076,297.384613 251.069687,298.221527 
M218.905273,251.144150 
	C217.690857,264.381836 222.964111,274.684143 233.971207,281.602509 
	C244.792572,288.404114 256.638947,288.570892 267.786804,282.715668 
	C281.313599,275.610992 286.940369,261.971405 283.874329,246.811707 
	C280.600372,230.624023 266.562592,219.506409 250.541473,220.412842 
	C232.530289,221.431870 220.339981,232.984253 218.905273,251.144150 
z"/>
<path fill="#000000" opacity="1.000000" stroke="none" 
	d="
M262.910339,229.720306 
	C273.562805,235.204285 278.164612,244.357376 277.825623,255.238663 
	C277.504700,265.539490 271.757507,273.273315 262.061554,277.678986 
	C253.362518,281.631683 240.925308,279.671967 234.125076,273.138733 
	C225.710373,265.054413 223.377838,254.207489 227.741058,243.451218 
	C231.790298,233.468994 240.416046,227.569977 250.873978,227.598022 
	C254.879654,227.608765 258.866547,227.672699 262.910339,229.720306 
M236.322784,252.713593 
	C236.140457,255.632629 237.108948,258.279388 238.380173,260.810425 
	C242.435257,268.884216 250.850693,271.430481 258.877472,267.067566 
	C266.571075,262.885742 269.155701,253.581360 264.694061,246.128662 
	C261.478699,240.757782 255.192230,237.381180 249.668549,238.295349 
	C241.960785,239.570953 237.944916,244.569489 236.322784,252.713593 
z"/>
</svg>