<?xml version="1.0" encoding="UTF-8"?>
<svg version="1.1" xmlns="http://www.w3.org/2000/svg" width="512" height="512">
<path d="M0 0 C1.10355331 -0.00671722 2.20710663 -0.01343445 3.34410095 -0.02035522 C6.97651731 -0.03928482 10.60874838 -0.04325699 14.24121094 -0.04541016 C16.77935867 -0.05184182 19.31750566 -0.05857046 21.85565186 -0.06558228 C27.1715293 -0.07754265 32.48733836 -0.08135038 37.80322266 -0.08007812 C43.91992345 -0.07887835 50.03627048 -0.09995728 56.15288186 -0.13156545 C62.06780956 -0.16102596 67.98263086 -0.16804997 73.89763641 -0.16685867 C76.39971103 -0.16920882 78.90178866 -0.17799902 81.40381622 -0.19352341 C84.91403503 -0.21326353 88.42335849 -0.20731298 91.93359375 -0.1953125 C93.46302864 -0.21217102 93.46302864 -0.21217102 95.02336121 -0.22937012 C108.5596145 -0.11261122 120.39347147 5.37617818 130.41308594 14.35302734 C145.09205336 30.12849594 145.18506102 48.38366938 145.12402344 68.66552734 C145.12604776 71.04101653 145.12896217 73.41650511 145.13272095 75.79199219 C145.1371274 80.75445511 145.13076737 85.71675531 145.11669922 90.67919922 C145.09960861 97.01371213 145.10945879 103.34784358 145.12741661 109.68234253 C145.13829982 114.58279247 145.13478731 119.48315321 145.12703323 124.38360596 C145.12504376 126.71820115 145.12744604 129.05280467 145.13447189 131.38739014 C145.18041799 150.94205053 144.27068576 167.10093247 130.10058594 181.97021484 C118.30524893 193.4939487 105.56121224 197.43293368 89.32080078 197.45166016 C88.28581451 197.45662506 87.25082825 197.46158997 86.18447876 197.46670532 C82.76848682 197.48128088 79.35254134 197.48812202 75.93652344 197.49365234 C73.55245971 197.49940848 71.16839599 197.50516615 68.78433228 197.51092529 C63.78606959 197.52142281 58.78782293 197.52727336 53.78955078 197.53076172 C47.40782133 197.53623751 41.02630618 197.5602515 34.64464378 197.58873367 C29.7184692 197.60742719 24.7923455 197.61256927 19.86613846 197.6140976 C17.51478532 197.61711053 15.16343279 197.62509272 12.81211472 197.63828278 C-7.51141152 197.74413412 -23.50764498 196.4586272 -38.98535156 181.76708984 C-48.76535839 171.18599031 -52.91163839 158.77822979 -52.77612305 144.53027344 C-52.78152603 143.42292343 -52.78692902 142.31557343 -52.79249573 141.17466736 C-52.80489169 137.55415209 -52.78855434 133.93444622 -52.77050781 130.31396484 C-52.77066299 127.77674315 -52.77215506 125.23952122 -52.7749176 122.70230103 C-52.77629744 117.40184058 -52.76425277 112.10165964 -52.7409668 106.80126953 C-52.71433744 100.69811207 -52.71262341 94.59533492 -52.72435516 88.49213922 C-52.73518096 82.58570991 -52.72880565 76.67939525 -52.71479988 70.77296829 C-52.71030103 68.27484153 -52.70993481 65.77670362 -52.71386528 63.2785759 C-52.71679187 59.78281868 -52.70020148 56.28767203 -52.6784668 52.79199219 C-52.68296844 51.77146255 -52.68747009 50.75093292 -52.69210815 49.69947815 C-52.55735035 36.5833032 -47.65540772 23.671521 -38.27441406 14.29052734 C-26.03535387 4.42592205 -15.72309936 -0.01386659 0 0 Z M-8.27441406 47.29052734 C-9.98920754 50.7201143 -9.43086547 54.65972001 -9.43554688 58.43432617 C-9.44051178 59.38243668 -9.44547668 60.33054718 -9.45059204 61.30738831 C-9.46523583 64.45411903 -9.47201958 67.60079934 -9.47753906 70.74755859 C-9.48328897 72.92990623 -9.48904672 75.11225385 -9.49481201 77.29460144 C-9.5053285 81.87535844 -9.51116683 86.45609785 -9.51464844 91.03686523 C-9.52013256 96.90823 -9.54415625 102.77936278 -9.57262039 108.65065479 C-9.59123961 113.16050394 -9.59645201 117.67029716 -9.59798431 122.1801815 C-9.60101331 124.34473628 -9.6090501 126.50929001 -9.62216949 128.67380714 C-9.63921374 131.70223272 -9.6373535 134.73009091 -9.63085938 137.75854492 C-9.64007416 138.65379883 -9.64928894 139.54905273 -9.65878296 140.47143555 C-9.62684927 145.22248165 -9.40345358 148.45078392 -6.27441406 152.29052734 C-4.01641658 153.41952608 -2.77729956 153.42527374 -0.27116394 153.44442749 C0.56577499 153.45302795 1.40271393 153.46162842 2.26501465 153.4704895 C3.18504272 153.47474945 4.1050708 153.4790094 5.05297852 153.48339844 C6.02059616 153.49157593 6.98821381 153.49975342 7.9851532 153.50817871 C11.19680151 153.53305206 14.40840559 153.54955305 17.62011719 153.56396484 C19.26288918 153.57195036 19.26288918 153.57195036 20.9388485 153.5800972 C26.73469722 153.60683625 32.53052434 153.62620941 38.32641602 153.640625 C44.31899978 153.6572815 50.31103452 153.702066 56.30341053 153.75299644 C60.90590563 153.78661755 65.50826956 153.7981968 70.11087608 153.80385208 C72.32011807 153.81057793 74.52935104 153.82583438 76.73847389 153.84974289 C79.82944394 153.88128849 82.91892165 153.8814469 86.01000977 153.87402344 C86.92396515 153.89042877 87.83792053 153.90683411 88.77957153 153.92373657 C92.96870576 153.88251668 95.18440341 153.63121258 98.79336548 151.35929871 C101.50591618 147.05119925 101.42086895 143.6062227 101.35668945 138.60668945 C101.36384476 137.63702744 101.37100006 136.66736542 101.37837219 135.6683197 C101.39526156 132.4676889 101.37585589 129.26845812 101.35449219 126.06787109 C101.35532079 123.84257389 101.35777985 121.61727675 101.36180115 119.39198303 C101.36465924 114.73061681 101.34995505 110.06973107 101.32250977 105.40844727 C101.28840769 99.43040416 101.29445195 93.45321917 101.31317234 87.47513485 C101.3237345 82.88119846 101.31481187 78.28746217 101.29978752 73.69354439 C101.29460085 71.48910682 101.29509336 69.28464839 101.30133247 67.08021355 C101.30677582 64.00134108 101.28643765 60.92370261 101.2590332 57.8449707 C101.26555908 56.93213318 101.27208496 56.01929565 101.27880859 55.07879639 C101.23992232 50.05038852 101.23992232 50.05038852 98.81724548 45.75587463 C94.53418969 42.75530783 90.65704151 43.12866626 85.58178711 43.11352539 C84.63367661 43.10695419 83.6855661 43.100383 82.70872498 43.09361267 C79.5620008 43.07385472 76.41532439 43.06221185 73.26855469 43.05224609 C72.19543848 43.04817057 71.12232227 43.04409504 70.01668739 43.03989601 C64.33754289 43.01902518 58.65842263 43.00472752 52.97924805 42.99536133 C47.1078141 42.98429139 41.23675856 42.94988739 35.36545849 42.91018963 C30.85560899 42.88406831 26.34585028 42.8756735 21.83593178 42.87207985 C19.67136388 42.86720273 17.50680034 42.85555693 15.34230614 42.83704185 C12.3137535 42.81274493 9.28618823 42.81359827 6.25756836 42.82055664 C4.9146875 42.80134155 4.9146875 42.80134155 3.54467773 42.78173828 C-1.65986486 42.82535486 -4.53211512 43.30300596 -8.27441406 47.29052734 Z " fill="#000000" transform="translate(325.2744140625,272.70947265625)"/>
<path d="M0 0 C1.10735001 -0.00540298 2.21470001 -0.01080597 3.35560608 -0.01637268 C6.97612135 -0.02876864 10.59582722 -0.01243129 14.21630859 0.00561523 C16.75353029 0.00546006 19.29075222 0.00396798 21.82797241 0.00120544 C27.12843286 -0.0001744 32.42861379 0.01187027 37.72900391 0.03515625 C43.83216136 0.06178561 49.93493852 0.06349964 56.03813422 0.05176789 C61.94456352 0.04094209 67.85087819 0.0473174 73.75730515 0.06132317 C76.25543191 0.06582202 78.75356981 0.06618824 81.25169754 0.06225777 C84.74745476 0.05933117 88.24260141 0.07592157 91.73828125 0.09765625 C93.2690757 0.09090378 93.2690757 0.09090378 94.83079529 0.08401489 C107.94697024 0.2187727 120.85875244 5.12071533 130.23974609 14.50170898 C140.10435139 26.74076918 144.54414003 37.05302368 144.53027344 52.77612305 C144.53699066 53.87967636 144.54370789 54.98322968 144.55062866 56.120224 C144.56955826 59.75264036 144.57353043 63.38487143 144.57568359 67.01733398 C144.58211526 69.55548171 144.5888439 72.09362871 144.59585571 74.6317749 C144.60781609 79.94765235 144.61162381 85.26346141 144.61035156 90.5793457 C144.60915179 96.6960465 144.63023072 102.81239353 144.66183889 108.92900491 C144.6912994 114.8439326 144.6983234 120.7587539 144.69713211 126.67375946 C144.69948226 129.17583408 144.70827245 131.67791171 144.72379684 134.17993927 C144.74353697 137.69015808 144.73758642 141.19948154 144.72558594 144.7097168 C144.73682495 145.72934006 144.74806396 146.74896332 144.75964355 147.79948425 C144.64288465 161.33573754 139.15409526 173.16959451 130.17724609 183.18920898 C114.40177749 197.8681764 96.14660406 197.96118406 75.86474609 197.90014648 C73.48925691 197.9021708 71.11376833 197.90508522 68.73828125 197.90884399 C63.77581832 197.91325045 58.81351813 197.90689041 53.85107422 197.89282227 C47.51656131 197.87573165 41.18242985 197.88558184 34.84793091 197.90353966 C29.94748097 197.91442286 25.04712023 197.91091036 20.14666748 197.90315628 C17.81207228 197.90116681 15.47746877 197.90356908 13.1428833 197.91059494 C-6.41177709 197.95654104 -22.57065903 197.0468088 -37.43994141 182.87670898 C-48.96367526 171.08137197 -52.90266024 158.33733529 -52.92138672 142.09692383 C-52.92635162 141.06193756 -52.93131653 140.02695129 -52.93643188 138.96060181 C-52.95100744 135.54460986 -52.95784858 132.12866439 -52.96337891 128.71264648 C-52.96913504 126.32858276 -52.97489272 123.94451904 -52.98065186 121.56045532 C-52.99114938 116.56219264 -52.99699992 111.56394598 -53.00048828 106.56567383 C-53.00596407 100.18394438 -53.02997807 93.80242923 -53.05846024 87.42076683 C-53.07715375 82.49459225 -53.08229583 77.56846855 -53.08382416 72.64226151 C-53.08683709 70.29090837 -53.09481928 67.93955583 -53.10800934 65.58823776 C-53.21386068 45.26471153 -51.92835377 29.26847807 -37.23681641 13.79077148 C-26.65571687 4.01076466 -14.24795635 -0.13551535 0 0 Z M-7.76025391 46.50170898 C-8.88925265 48.75970646 -8.8950003 49.99882348 -8.91415405 52.50495911 C-8.92275452 53.34189804 -8.93135498 54.17883698 -8.94021606 55.0411377 C-8.94447601 55.96116577 -8.94873596 56.88119385 -8.953125 57.82910156 C-8.96130249 58.79671921 -8.96947998 59.76433685 -8.97790527 60.76127625 C-9.00277862 63.97292455 -9.01927961 67.18452863 -9.03369141 70.39624023 C-9.03901508 71.49142157 -9.04433876 72.5866029 -9.04982376 73.71497154 C-9.07656281 79.51082027 -9.09593598 85.30664739 -9.11035156 91.10253906 C-9.12700807 97.09512283 -9.17179257 103.08715757 -9.22272301 109.07953358 C-9.25634411 113.68202868 -9.26792336 118.2843926 -9.27357864 122.88699913 C-9.2803045 125.09624112 -9.29556094 127.30547408 -9.31946945 129.51459694 C-9.35101505 132.60556699 -9.35117346 135.6950447 -9.34375 138.78613281 C-9.36015533 139.7000882 -9.37656067 140.61404358 -9.39346313 141.55569458 C-9.35224324 145.74482881 -9.10093914 147.96052646 -6.82902527 151.56948853 C-2.52092581 154.28203923 0.92405074 154.196992 5.92358398 154.1328125 C6.893246 154.1399678 7.86290802 154.14712311 8.86195374 154.15449524 C12.06258454 154.17138461 15.26181531 154.15197894 18.46240234 154.13061523 C20.68769954 154.13144384 22.91299668 154.13390289 25.13829041 154.13792419 C29.79965662 154.14078228 34.46054237 154.1260781 39.12182617 154.09863281 C45.09986928 154.06453074 51.07705426 154.070575 57.05513859 154.08929539 C61.64907498 154.09985755 66.24281127 154.09093492 70.83672905 154.07591057 C73.04116662 154.0707239 75.24562505 154.07121641 77.45005989 154.07745552 C80.52893235 154.08289887 83.60657083 154.0625607 86.68530273 154.03515625 C87.59814026 154.04168213 88.51097778 154.04820801 89.45147705 154.05493164 C94.47988492 154.01604537 94.47988492 154.01604537 98.7743988 151.59336853 C101.77496561 147.31031273 101.40160717 143.43316456 101.41674805 138.35791016 C101.42331924 137.40979965 101.42989044 136.46168915 101.43666077 135.48484802 C101.45641872 132.33812385 101.46806158 129.19144744 101.47802734 126.04467773 C101.48210287 124.97156153 101.4861784 123.89844532 101.49037743 122.79281044 C101.51124826 117.11366594 101.52554592 111.43454567 101.53491211 105.75537109 C101.54598205 99.88393714 101.58038605 94.01288161 101.62008381 88.14158154 C101.64620512 83.63173204 101.65459994 79.12197333 101.65819359 74.61205482 C101.6630707 72.44748693 101.67471651 70.28292339 101.69323158 68.11842918 C101.71752851 65.08987654 101.71667517 62.06231127 101.7097168 59.03369141 C101.72252686 58.1384375 101.73533691 57.24318359 101.74853516 56.32080078 C101.71382628 52.17916899 101.58532602 50.05214203 99.33537292 46.46846008 C95.31235532 42.69284785 91.34441199 43.34708551 86.09594727 43.34057617 C85.14783676 43.33561127 84.19972626 43.33064636 83.22288513 43.32553101 C80.0761544 43.31088722 76.9294741 43.30410346 73.78271484 43.29858398 C71.60036721 43.29283408 69.41801959 43.28707632 67.235672 43.28131104 C62.654915 43.27079454 58.07417558 43.26495621 53.4934082 43.26147461 C47.62204344 43.25599048 41.75091065 43.23196679 35.87961864 43.20350266 C31.36976949 43.18488344 26.85997628 43.17967104 22.35009193 43.17813873 C20.18553716 43.17510974 18.02098343 43.16707294 15.85646629 43.15395355 C12.82804071 43.13690931 9.80018253 43.13876955 6.77172852 43.14526367 C5.42884766 43.1314415 5.42884766 43.1314415 4.05883789 43.11734009 C-0.69220822 43.14927378 -3.92051048 43.37266947 -7.76025391 46.50170898 Z " fill="#000000" transform="translate(94.76025390625,272.498291015625)"/>
<path d="M0 0 C2.37548919 -0.00202432 4.75097777 -0.00493873 7.12646484 -0.00869751 C12.08892777 -0.01310397 17.05122796 -0.00674393 22.01367188 0.00732422 C28.34818478 0.02441483 34.68231624 0.01456465 41.01681519 -0.00339317 C45.91726513 -0.01427638 50.81762586 -0.01076387 55.71807861 -0.0030098 C58.05267381 -0.00102033 60.38727732 -0.0034226 62.72186279 -0.01044846 C82.27652318 -0.05639456 98.43540512 0.85333768 113.3046875 15.0234375 C124.82842136 26.81877451 128.76740633 39.5628112 128.78613281 55.80322266 C128.79109772 56.83820892 128.79606262 57.87319519 128.80117798 58.93954468 C128.81575354 62.35553662 128.82259468 65.7714821 128.828125 69.1875 C128.83388114 71.57156372 128.83963881 73.95562745 128.84539795 76.33969116 C128.85589547 81.33795384 128.86174602 86.33620051 128.86523438 91.33447266 C128.87071017 97.71620211 128.89472416 104.09771726 128.92320633 110.47937965 C128.94189984 115.40555423 128.94704193 120.33167794 128.94857025 125.25788498 C128.95158319 127.60923812 128.95956538 129.96059065 128.97275543 132.31190872 C129.07860678 152.63543495 127.79309986 168.63166842 113.1015625 184.109375 C102.52046297 193.88938182 90.11270244 198.03566183 75.86474609 197.90014648 C74.75739609 197.90554947 73.65004608 197.91095245 72.50914001 197.91651917 C68.88862474 197.92891513 65.26891887 197.91257778 61.6484375 197.89453125 C59.11121581 197.89468643 56.57399388 197.8961785 54.03677368 197.89894104 C48.73631324 197.90032088 43.4361323 197.88827621 38.13574219 197.86499023 C32.03258473 197.83836088 25.92980758 197.83664685 19.82661188 197.8483786 C13.92018257 197.8592044 8.0138679 197.85282909 2.10744095 197.83882332 C-0.39068582 197.83432446 -2.88882372 197.83395825 -5.38695145 197.83788872 C-8.88270867 197.84081531 -12.37785532 197.82422492 -15.87353516 197.80249023 C-17.40432961 197.80924271 -17.40432961 197.80924271 -18.96604919 197.81613159 C-32.08222414 197.68137379 -44.99400634 192.77943116 -54.375 183.3984375 C-62.07277612 174.09056876 -68.45828505 163.8880002 -68.52217102 151.5120697 C-68.53290398 150.07633102 -68.53290398 150.07633102 -68.54385376 148.61158752 C-68.54654266 147.57308151 -68.54923157 146.5345755 -68.55200195 145.46459961 C-68.55857315 144.36148438 -68.56514435 143.25836914 -68.57191467 142.12182617 C-68.59161494 138.47314379 -68.60330429 134.82450256 -68.61328125 131.17578125 C-68.61735678 129.92659975 -68.6214323 128.67741825 -68.62563133 127.39038277 C-68.64433258 121.45728166 -68.65889972 115.52419353 -68.6672433 109.59107012 C-68.6769956 102.77096217 -68.70326831 95.95118051 -68.74374419 89.13118738 C-68.77771051 83.20186617 -68.78940209 77.2726235 -68.79344749 71.34320259 C-68.79830219 68.83274692 -68.80988406 66.32229445 -68.82848549 63.811903 C-68.85297654 60.28702111 -68.85189303 56.76297901 -68.8449707 53.23803711 C-68.85778076 52.21370071 -68.87059082 51.18936432 -68.88378906 50.13398743 C-68.78745331 36.58089465 -63.3002772 24.74274943 -54.3125 14.7109375 C-38.5370314 0.03197008 -20.28185796 -0.06103758 0 0 Z M-24.375 48.3984375 C-26.08973833 51.82791416 -25.54074039 55.76733494 -25.55200195 59.54223633 C-25.55857315 60.49034683 -25.56514435 61.43845734 -25.57191467 62.41529846 C-25.59167263 65.56202263 -25.60331549 68.70869904 -25.61328125 71.85546875 C-25.61735678 72.92858496 -25.6214323 74.00170116 -25.62563133 75.10733604 C-25.64650216 80.78648055 -25.66079982 86.46560081 -25.67016602 92.14477539 C-25.68123595 98.01620934 -25.71563995 103.88726488 -25.75533772 109.75856495 C-25.78145903 114.26841445 -25.78985385 118.77817316 -25.79344749 123.28809166 C-25.79832461 125.45265955 -25.80997042 127.6172231 -25.82848549 129.7817173 C-25.85278241 132.81026994 -25.85192908 135.83783521 -25.8449707 138.86645508 C-25.85778076 139.76170898 -25.87059082 140.65696289 -25.88378906 141.5793457 C-25.84908019 145.7209775 -25.72057992 147.84800445 -23.47062683 151.4316864 C-19.44760922 155.20729864 -15.4796659 154.55306097 -10.23120117 154.55957031 C-9.28309067 154.56453522 -8.33498016 154.56950012 -7.35813904 154.57461548 C-4.21140831 154.58925927 -1.064728 154.59604302 2.08203125 154.6015625 C4.26437889 154.60731241 6.4467265 154.61307016 8.6290741 154.61883545 C13.2098311 154.62935194 17.79057051 154.63519027 22.37133789 154.63867188 C28.24270266 154.644156 34.11383544 154.66817969 39.98512745 154.69664383 C44.4949766 154.71526305 49.00476982 154.72047545 53.51465416 154.72200775 C55.67920893 154.72503675 57.84376267 154.73307354 60.0082798 154.74619293 C63.03670538 154.76323717 66.06456356 154.76137694 69.09301758 154.75488281 C69.98827148 154.7640976 70.88352539 154.77331238 71.8059082 154.7828064 C76.55695431 154.75087271 79.78525658 154.52747702 83.625 151.3984375 C84.75399874 149.14044002 84.75974639 147.901323 84.77890015 145.39518738 C84.78750061 144.55824844 84.79610107 143.72130951 84.80496216 142.85900879 C84.80922211 141.93898071 84.81348206 141.01895264 84.81787109 140.07104492 C84.82604858 139.10342728 84.83422607 138.13580963 84.84265137 137.13887024 C84.86752472 133.92722193 84.8840257 130.71561785 84.8984375 127.50390625 C84.90642302 125.86113425 84.90642302 125.86113425 84.91456985 124.18517494 C84.94130891 118.38932621 84.96068207 112.59349909 84.97509766 106.79760742 C84.99175416 100.80502365 85.03653866 94.81298891 85.0874691 88.82061291 C85.1210902 84.21811781 85.13266945 79.61575388 85.13832474 75.01314735 C85.14505059 72.80390536 85.16030704 70.5946724 85.18421555 68.38554955 C85.21576115 65.2945795 85.21591956 62.20510179 85.20849609 59.11401367 C85.22490143 58.20005829 85.24130676 57.28610291 85.25820923 56.3444519 C85.21698933 52.15531768 84.96568524 49.93962003 82.69377136 46.33065796 C78.3856719 43.61810726 74.94069536 43.70315449 69.94116211 43.76733398 C68.48666908 43.75660103 68.48666908 43.75660103 67.00279236 43.74565125 C63.80216156 43.72876187 60.60293078 43.74816755 57.40234375 43.76953125 C55.17704655 43.76870265 52.95174941 43.76624359 50.72645569 43.76222229 C46.06508947 43.7593642 41.40420373 43.77406839 36.74291992 43.80151367 C30.76487682 43.83561575 24.78769183 43.82957148 18.80960751 43.8108511 C14.21567112 43.80028894 9.62193482 43.80921156 5.02801704 43.82423592 C2.82357947 43.82942258 0.61912105 43.82893008 -1.5853138 43.82269096 C-4.66418626 43.81724761 -7.74182474 43.83758579 -10.82055664 43.86499023 C-12.18981293 43.85520142 -12.18981293 43.85520142 -13.58673096 43.84521484 C-18.54065869 43.92028561 -21.33182147 44.05455707 -24.375 48.3984375 Z " fill="#000000" transform="translate(341.375,41.6015625)"/>
<path d="M0 0 C1.03498627 -0.0049649 2.06997253 -0.00992981 3.13632202 -0.01504517 C6.55231397 -0.02962072 9.96825944 -0.03646187 13.38427734 -0.04199219 C15.76834107 -0.04774833 18.15240479 -0.053506 20.53646851 -0.05926514 C25.53473119 -0.06976266 30.53297785 -0.0756132 35.53125 -0.07910156 C41.91297945 -0.08457735 48.2944946 -0.10859135 54.676157 -0.13707352 C59.60233158 -0.15576703 64.52845528 -0.16090912 69.45466232 -0.16243744 C71.80601546 -0.16545037 74.15736799 -0.17343257 76.50868607 -0.18662262 C96.8322123 -0.29247396 112.82844576 0.99303295 128.30615234 15.68457031 C138.08615917 26.26566985 142.23243917 38.67343037 142.09692383 52.92138672 C142.10502831 54.58241173 142.10502831 54.58241173 142.11329651 56.2769928 C142.12569247 59.89750807 142.10935512 63.51721394 142.09130859 67.13769531 C142.09146377 69.67491701 142.09295585 72.21213894 142.09571838 74.74935913 C142.09709822 80.04981958 142.08505356 85.35000051 142.06176758 90.65039062 C142.03513822 96.75354808 142.03342419 102.85632523 142.04515594 108.95952094 C142.05598174 114.86595024 142.04960643 120.77226491 142.03560066 126.67869186 C142.03110181 129.17681863 142.03073559 131.67495653 142.03466606 134.17308426 C142.03759266 137.66884148 142.02100226 141.16398813 141.99926758 144.65966797 C142.00602005 146.19046242 142.00602005 146.19046242 142.01290894 147.75218201 C141.87815113 160.86835696 136.9762085 173.78013916 127.59521484 183.16113281 C115.35615465 193.02573811 105.04390015 197.46552675 89.32080078 197.45166016 C88.21724747 197.45837738 87.11369415 197.4650946 85.97669983 197.47201538 C82.34428347 197.49094498 78.7120524 197.49491715 75.07958984 197.49707031 C72.54144211 197.50350198 70.00329512 197.51023062 67.46514893 197.51724243 C62.14927148 197.52920281 56.83346242 197.53301053 51.51757812 197.53173828 C45.40087733 197.53053851 39.2845303 197.55161744 33.16791892 197.58322561 C27.25299122 197.61268612 21.33816993 197.61971012 15.42316437 197.61851883 C12.92108975 197.62086898 10.41901212 197.62965917 7.91698456 197.64518356 C4.40676575 197.66492368 0.89744229 197.65897313 -2.61279297 197.64697266 C-3.63241623 197.65821167 -4.65203949 197.66945068 -5.70256042 197.68103027 C-19.23881371 197.56427137 -31.07267069 192.07548198 -41.09228516 183.09863281 C-55.77125258 167.32316421 -55.86426023 149.06799078 -55.80322266 128.78613281 C-55.80524698 126.41064362 -55.80816139 124.03515505 -55.81192017 121.65966797 C-55.81632662 116.69720504 -55.80996659 111.73490485 -55.79589844 106.77246094 C-55.77880783 100.43794803 -55.78865801 94.10381657 -55.80661583 87.76931763 C-55.81749904 82.86886769 -55.81398653 77.96850695 -55.80623245 73.0680542 C-55.80424298 70.733459 -55.80664525 68.39885549 -55.81367111 66.06427002 C-55.85961721 46.50960963 -54.94988498 30.35072769 -40.77978516 15.48144531 C-28.98444814 3.95771146 -16.24041146 0.01872648 0 0 Z M-9.4725647 46.09236145 C-12.1851154 50.40046091 -12.10006817 53.84543745 -12.03588867 58.8449707 C-12.04304398 59.81463272 -12.05019928 60.78429474 -12.05757141 61.78334045 C-12.07446078 64.98397126 -12.05505511 68.18320203 -12.03369141 71.38378906 C-12.03452001 73.60908626 -12.03697907 75.8343834 -12.04100037 78.05967712 C-12.04385846 82.72104334 -12.02915427 87.38192909 -12.00170898 92.04321289 C-11.96760691 98.02125599 -11.97365117 103.99844098 -11.99237156 109.97652531 C-12.00293372 114.5704617 -11.99401109 119.16419799 -11.97898674 123.75811577 C-11.97380007 125.96255334 -11.97429258 128.16701176 -11.98053169 130.37144661 C-11.98597504 133.45031907 -11.96563687 136.52795755 -11.93823242 139.60668945 C-11.9447583 140.51952698 -11.95128418 141.4323645 -11.95800781 142.37286377 C-11.91912154 147.40127164 -11.91912154 147.40127164 -9.4964447 151.69578552 C-5.21338891 154.69635233 -1.33624073 154.32299389 3.73901367 154.33813477 C5.16117943 154.34799156 5.16117943 154.34799156 6.61207581 154.35804749 C9.75879998 154.37780544 12.90547639 154.3894483 16.05224609 154.39941406 C17.1253623 154.40348959 18.19847851 154.40756512 19.30411339 154.41176414 C24.98325789 154.43263498 30.66237815 154.44693264 36.34155273 154.45629883 C42.21298669 154.46736877 48.08404222 154.50177277 53.95534229 154.54147053 C58.46519179 154.56759184 62.9749505 154.57598666 67.484869 154.57958031 C69.6494369 154.58445742 71.81400044 154.59610323 73.97849464 154.6146183 C77.00704728 154.63891522 80.03461255 154.63806189 83.06323242 154.63110352 C84.40611328 154.6503186 84.40611328 154.6503186 85.77612305 154.66992188 C89.91775484 154.635213 92.0447818 154.50671274 95.62846375 152.25675964 C99.40407598 148.23374203 98.74983831 144.26579871 98.75634766 139.01733398 C98.76131256 138.06922348 98.76627747 137.12111298 98.77139282 136.14427185 C98.78603661 132.99754112 98.79282036 129.85086081 98.79833984 126.70410156 C98.80408975 124.52175393 98.8098475 122.33940631 98.81561279 120.15705872 C98.82612929 115.57630172 98.83196762 110.9955623 98.83544922 106.41479492 C98.84093334 100.54343016 98.86495703 94.67229737 98.89342117 88.80100536 C98.91204039 84.29115621 98.91725279 79.781363 98.9187851 75.27147865 C98.92181409 73.10692388 98.92985089 70.94237015 98.94297028 68.77785301 C98.96001452 65.74942743 98.95815428 62.72156925 98.95166016 59.69311523 C98.96087494 58.79786133 98.97008972 57.90260742 98.97958374 56.98022461 C98.94765005 52.2291785 98.72425436 49.00087624 95.59521484 45.16113281 C93.33721736 44.03213407 92.09810035 44.02638642 89.59196472 44.00723267 C88.75502579 43.9986322 87.91808685 43.99003174 87.05578613 43.98117065 C86.13575806 43.97691071 85.21572998 43.97265076 84.26782227 43.96826172 C83.30020462 43.96008423 82.33258698 43.95190674 81.33564758 43.94348145 C78.12399927 43.91860809 74.91239519 43.90210711 71.70068359 43.88769531 C70.60550226 43.88237164 69.51032093 43.87704796 68.38195229 43.87156296 C62.58610356 43.84482391 56.79027644 43.82545074 50.99438477 43.81103516 C45.001801 43.79437865 39.00976626 43.74959415 33.01739025 43.69866371 C28.41489515 43.66504261 23.81253123 43.65346336 19.2099247 43.64780807 C17.00068271 43.64108222 14.79144974 43.62582577 12.58232689 43.60191727 C9.49135684 43.57037166 6.40187913 43.57021326 3.31079102 43.57763672 C2.39683563 43.56123138 1.48288025 43.54482605 0.54122925 43.52792358 C-3.64790498 43.56914348 -5.86360263 43.82044758 -9.4725647 46.09236145 Z " fill="#000000" transform="translate(97.40478515625,41.8388671875)"/>
</svg>
